<?xml version="1.0" standalone="no"?><!DOCTYPE svg PUBLIC "-//W3C//DTD SVG 1.1//EN" "http://www.w3.org/Graphics/SVG/1.1/DTD/svg11.dtd"><svg t="1541586683451" class="icon" style="" viewBox="0 0 1024 1024" version="1.1" xmlns="http://www.w3.org/2000/svg" p-id="1987" xmlns:xlink="http://www.w3.org/1999/xlink" width="200" height="200"><defs><style type="text/css"></style></defs><path d="M701.5 262.9c-122.7-122.7-321.7-122.7-444.5 0-122.7 122.7-122.7 321.7 0 444.4 122.7 122.7 321.7 122.7 444.5 0 122.8-122.7 122.8-321.7 0-444.4zM208.4 745.7c-146.8-146.8-146.8-384.8 0-531.5s384.7-146.7 531.6 0C886.8 361 886.8 599 740 745.7c-146.9 146.7-384.8 146.7-531.6 0z m717.2 152.6c-20.1 20-28.4 22.5-54.6 18l-72.6-72.6c-20-20.1-20-19.5 0-39.5s17.4-15.9 39.5-33.1l72.6 72.6c20.1 20.1 20.1 52.6 0 72.6l15.1-18z" p-id="1988" fill="#C4C9D2"></path></svg>